<?xml version="1.0" encoding="utf-8"?>
<!-- Generator: Adobe Illustrator 25.2.3, SVG Export Plug-In . SVG Version: 6.00 Build 0)  -->
<svg version="1.1" id="Layer_1" xmlns="http://www.w3.org/2000/svg" xmlns:xlink="http://www.w3.org/1999/xlink" x="0px" y="0px"
	 viewBox="0 0 35 35" style="enable-background:new 0 0 35 35;" xml:space="preserve">
<style type="text/css">
	.st0{clip-path:url(#SVGID_2_);}
	.st1{fill:#040505;}
</style>
<g>
	<defs>
		<rect id="SVGID_1_" width="35" height="35"/>
	</defs>
	<clipPath id="SVGID_2_">
		<use xlink:href="#SVGID_1_"  style="overflow:visible;"/>
	</clipPath>
	<g id="Carrito" class="st0">
		<path id="Path_7779" class="st1" d="M26,20.7c0.3,0,0.5-0.2,0.6-0.5l2.5-9.3c0.1-0.3-0.1-0.7-0.5-0.8c-0.1,0-0.1,0-0.2,0L9.3,9.7
			L8.8,7.3L4.9,6C4.5,5.9,4.2,6.1,4.1,6.5C4,6.8,4.1,7.2,4.5,7.3l3.2,1l2.8,13c-0.3,0.8-0.2,1.7,0.2,2.5c0.4,0.7,1,1.2,1.8,1.4
			c-1.3,0.5-1.8,2-1.3,3.3c0.4,0.9,1.3,1.5,2.2,1.5h0c1.4,0,2.5-1.1,2.5-2.5c0-0.8-0.4-1.6-1.1-2c0.3,0,0.6-0.1,0.8-0.1
			c0.4-0.1,0.8-0.1,1.2-0.1c0.4,0.1,0.8,0.3,1.2,0.5c0.8,0.6,1.8,0.9,2.8,0.9c0,0,0.1,0,0.1,0h0.1c1,0,2-0.4,2.8-0.9
			c0.3-0.2,0.7-0.4,1-0.5c0.1,0,0.3,0,0.4,0c-1.3,0.4-2,1.9-1.5,3.1c0.3,1,1.3,1.7,2.3,1.7h0c1.4,0,2.5-1.1,2.5-2.5
			c0-0.8-0.4-1.6-1.1-2.1c0.2,0,0.3,0,0.5,0c0.4,0,0.6-0.3,0.6-0.7l0,0c0-0.4-0.3-0.6-0.7-0.6c0,0,0,0,0,0c-0.5,0-1,0-1.5-0.1
			c-0.6-0.1-1.1-0.2-1.7-0.1c-0.5,0.1-1,0.3-1.5,0.6c-0.7,0.4-1.4,0.7-2.2,0.7h-0.1c-0.8,0-1.5-0.3-2.2-0.7
			c-0.5-0.3-1.1-0.5-1.6-0.7c-0.5,0-1.1,0-1.6,0.1c-0.8,0.2-1.7,0.2-2.5-0.1c-0.5-0.1-0.9-0.4-1.2-0.8c-0.2-0.4-0.2-0.9-0.1-1.4
			L26,20.7z M26.8,28.4c-0.2,0.2-0.5,0.3-0.8,0.3c-0.7,0-1.2-0.5-1.2-1.2s0.5-1.2,1.2-1.2h0c0.7,0,1.2,0.5,1.2,1.2
			C27.2,27.8,27.1,28.1,26.8,28.4L26.8,28.4z M14.2,28.3c-0.2,0.2-0.5,0.3-0.8,0.3c-0.7,0-1.2-0.5-1.2-1.2c0-0.7,0.5-1.2,1.2-1.2h0
			c0.7,0,1.2,0.5,1.2,1.2C14.5,27.8,14.4,28.1,14.2,28.3L14.2,28.3z M10.6,16.1l3.3,0.1l0.6,4.1l-2.9,0.2L10.6,16.1z M18,11.2l0,3.8
			l-2.9,0l-0.5-3.8L18,11.2z M15.2,16.2l2.7,0l0,3.8l-2.2,0.2L15.2,16.2z M19.3,16.2l3,0l-0.5,3.4l-2.5,0.2L19.3,16.2z M22.4,15
			l-3.2,0l0-3.8l3.7,0.1L22.4,15z M25.4,19.4L23,19.6l0.5-3.3l2.7,0L25.4,19.4z M26.6,15.1l-2.9,0l0.6-3.7l3.3,0.1L26.6,15.1z
			 M13.2,11.1l0.5,3.8l-3.4-0.1L9.5,11L13.2,11.1z"/>
	</g>
</g>
</svg>
