<?xml version="1.0" encoding="utf-8"?>
<!-- Generator: Adobe Illustrator 25.2.3, SVG Export Plug-In . SVG Version: 6.00 Build 0)  -->
<svg version="1.1" id="Layer_1" xmlns="http://www.w3.org/2000/svg" xmlns:xlink="http://www.w3.org/1999/xlink" x="0px" y="0px"
	 viewBox="0 0 38 29" style="enable-background:new 0 0 38 29;" xml:space="preserve">
<style type="text/css">
	.st0{clip-path:url(#SVGID_2_);}
	.st1{fill:#212121;}
</style>
<g>
	<defs>
		<rect id="SVGID_1_" width="38" height="29"/>
	</defs>
	<clipPath id="SVGID_2_">
		<use xlink:href="#SVGID_1_"  style="overflow:visible;"/>
	</clipPath>
	<g id="Menú_de_hamburguesa" class="st0">
		<g id="menu-left" transform="translate(-1.285 -4.501)">
			<path id="Path_7799" class="st1" d="M3,19.5c0-0.9,0.8-1.7,1.7-1.7h30.9c0.9,0,1.7,0.8,1.7,1.7c0,0.9-0.8,1.6-1.7,1.7H4.7
				C3.8,21.2,3,20.4,3,19.5C3,19.5,3,19.5,3,19.5z"/>
			<path id="Path_8226" class="st1" d="M3,29.8c0-0.9,0.8-1.7,1.7-1.7h30.9c0.9,0,1.7,0.8,1.7,1.7c0,0.9-0.8,1.6-1.7,1.7H4.7
				C3.8,31.5,3,30.7,3,29.8C3,29.8,3,29.8,3,29.8z"/>
			<path id="Path_8225" class="st1" d="M3,9.2c0-0.9,0.8-1.7,1.7-1.7h30.9c0.9,0,1.7,0.8,1.7,1.7c0,0.9-0.8,1.6-1.7,1.7H4.7
				C3.8,10.9,3,10.1,3,9.2C3,9.2,3,9.2,3,9.2z"/>
		</g>
	</g>
</g>
</svg>
